<?xml version="1.0" encoding="UTF-8" standalone="no"?>
<!-- Created with Inkscape (http://www.inkscape.org/) -->

<svg
   xmlns:dc="http://purl.org/dc/elements/1.1/"
   xmlns:cc="http://creativecommons.org/ns#"
   xmlns:rdf="http://www.w3.org/1999/02/22-rdf-syntax-ns#"
   xmlns:svg="http://www.w3.org/2000/svg"
   xmlns="http://www.w3.org/2000/svg"
   xmlns:sodipodi="http://sodipodi.sourceforge.net/DTD/sodipodi-0.dtd"
   xmlns:inkscape="http://www.inkscape.org/namespaces/inkscape"
   width="297mm"
   height="210mm"
   viewBox="0 0 297 210"
   version="1.1"
   id="svg8"
   inkscape:version="0.92.3 (2405546, 2018-03-11)"
   sodipodi:docname="Apparatus.svg">
  <defs
     id="defs2">
    <marker
       inkscape:stockid="Arrow2Lstart"
       orient="auto"
       refY="0.0"
       refX="0.0"
       id="Arrow2Lstart"
       style="overflow:visible"
       inkscape:isstock="true">
      <path
         id="path880"
         style="fill-rule:evenodd;stroke-width:0.625;stroke-linejoin:round;stroke:#000000;stroke-opacity:0.75348834;fill:#0000ff;fill-opacity:0.25490196"
         d="M 8.7185878,4.0337352 L -2.2072895,0.016013256 L 8.7185884,-4.0017078 C 6.9730900,-1.6296469 6.9831476,1.6157441 8.7185878,4.0337352 z "
         transform="scale(1.1) translate(1,0)" />
    </marker>
    <marker
       inkscape:stockid="Arrow2Lend"
       orient="auto"
       refY="0.0"
       refX="0.0"
       id="marker2663"
       style="overflow:visible;"
       inkscape:isstock="true">
      <path
         id="path2661"
         style="fill-rule:evenodd;stroke-width:0.625;stroke-linejoin:round;stroke:#000000;stroke-opacity:0.75348834;fill:#000000;fill-opacity:0.75348834"
         d="M 8.7185878,4.0337352 L -2.2072895,0.016013256 L 8.7185884,-4.0017078 C 6.9730900,-1.6296469 6.9831476,1.6157441 8.7185878,4.0337352 z "
         transform="scale(1.1) rotate(180) translate(1,0)" />
    </marker>
    <marker
       inkscape:stockid="Arrow1Lend"
       orient="auto"
       refY="0.0"
       refX="0.0"
       id="Arrow1Lend"
       style="overflow:visible;"
       inkscape:isstock="true">
      <path
         id="path865"
         d="M 0.0,0.0 L 5.0,-5.0 L -12.5,0.0 L 5.0,5.0 L 0.0,0.0 z "
         style="fill-rule:evenodd;stroke:#000000;stroke-width:1pt;stroke-opacity:1;fill:#000000;fill-opacity:1"
         transform="scale(0.8) rotate(180) translate(12.5,0)" />
    </marker>
    <marker
       inkscape:stockid="Arrow2Lend"
       orient="auto"
       refY="0.0"
       refX="0.0"
       id="marker1146"
       style="overflow:visible;"
       inkscape:isstock="true">
      <path
         id="path1144"
         style="fill-rule:evenodd;stroke-width:0.625;stroke-linejoin:round;stroke:#00ff00;stroke-opacity:1;fill:#00ff00;fill-opacity:1"
         d="M 8.7185878,4.0337352 L -2.2072895,0.016013256 L 8.7185884,-4.0017078 C 6.9730900,-1.6296469 6.9831476,1.6157441 8.7185878,4.0337352 z "
         transform="scale(1.1) rotate(180) translate(1,0)" />
    </marker>
    <marker
       inkscape:stockid="Arrow2Lend"
       orient="auto"
       refY="0.0"
       refX="0.0"
       id="Arrow2Lend"
       style="overflow:visible;"
       inkscape:isstock="true">
      <path
         id="path883"
         style="fill-rule:evenodd;stroke-width:0.625;stroke-linejoin:round;stroke:#00ff00;stroke-opacity:1;fill:#00ff00;fill-opacity:1"
         d="M 8.7185878,4.0337352 L -2.2072895,0.016013256 L 8.7185884,-4.0017078 C 6.9730900,-1.6296469 6.9831476,1.6157441 8.7185878,4.0337352 z "
         transform="scale(1.1) rotate(180) translate(1,0)" />
    </marker>
    <marker
       inkscape:stockid="Arrow1Lend"
       orient="auto"
       refY="0"
       refX="0"
       id="Arrow1Lend-6"
       style="overflow:visible"
       inkscape:isstock="true">
      <path
         inkscape:connector-curvature="0"
         id="path865-6"
         d="M 0,0 5,-5 -12.5,0 5,5 Z"
         style="fill:#000000;fill-opacity:1;fill-rule:evenodd;stroke:#000000;stroke-width:1.00000003pt;stroke-opacity:1"
         transform="matrix(-0.8,0,0,-0.8,-10,0)" />
    </marker>
    <marker
       inkscape:stockid="Arrow1Lend"
       orient="auto"
       refY="0"
       refX="0"
       id="Arrow1Lend-9"
       style="overflow:visible"
       inkscape:isstock="true">
      <path
         inkscape:connector-curvature="0"
         id="path865-8"
         d="M 0,0 5,-5 -12.5,0 5,5 Z"
         style="fill:#000000;fill-opacity:1;fill-rule:evenodd;stroke:#000000;stroke-width:1.00000003pt;stroke-opacity:1"
         transform="matrix(-0.8,0,0,-0.8,-10,0)" />
    </marker>
    <marker
       inkscape:stockid="Arrow1Lend"
       orient="auto"
       refY="0"
       refX="0"
       id="Arrow1Lend-5"
       style="overflow:visible"
       inkscape:isstock="true">
      <path
         inkscape:connector-curvature="0"
         id="path865-5"
         d="M 0,0 5,-5 -12.5,0 5,5 Z"
         style="fill:#000000;fill-opacity:1;fill-rule:evenodd;stroke:#000000;stroke-width:1.00000003pt;stroke-opacity:1"
         transform="matrix(-0.8,0,0,-0.8,-10,0)" />
    </marker>
    <marker
       inkscape:stockid="Arrow1Lend"
       orient="auto"
       refY="0"
       refX="0"
       id="Arrow1Lend-4"
       style="overflow:visible"
       inkscape:isstock="true">
      <path
         inkscape:connector-curvature="0"
         id="path865-2"
         d="M 0,0 5,-5 -12.5,0 5,5 Z"
         style="fill:#000000;fill-opacity:1;fill-rule:evenodd;stroke:#000000;stroke-width:1.00000003pt;stroke-opacity:1"
         transform="matrix(-0.8,0,0,-0.8,-10,0)" />
    </marker>
    <marker
       inkscape:stockid="Arrow1Lend"
       orient="auto"
       refY="0"
       refX="0"
       id="Arrow1Lend-62"
       style="overflow:visible"
       inkscape:isstock="true">
      <path
         inkscape:connector-curvature="0"
         id="path865-3"
         d="M 0,0 5,-5 -12.5,0 5,5 Z"
         style="fill:#000000;fill-opacity:1;fill-rule:evenodd;stroke:#000000;stroke-width:1.00000003pt;stroke-opacity:1"
         transform="matrix(-0.8,0,0,-0.8,-10,0)" />
    </marker>
    <marker
       inkscape:stockid="Arrow1Lend"
       orient="auto"
       refY="0"
       refX="0"
       id="Arrow1Lend-8"
       style="overflow:visible"
       inkscape:isstock="true">
      <path
         inkscape:connector-curvature="0"
         id="path865-81"
         d="M 0,0 5,-5 -12.5,0 5,5 Z"
         style="fill:#000000;fill-opacity:1;fill-rule:evenodd;stroke:#000000;stroke-width:1.00000003pt;stroke-opacity:1"
         transform="matrix(-0.8,0,0,-0.8,-10,0)" />
    </marker>
    <marker
       inkscape:stockid="Arrow2Lend"
       orient="auto"
       refY="0"
       refX="0"
       id="marker2663-6"
       style="overflow:visible"
       inkscape:isstock="true">
      <path
         inkscape:connector-curvature="0"
         id="path2661-7"
         style="fill:#000000;fill-opacity:0.75348834;fill-rule:evenodd;stroke:#000000;stroke-width:0.625;stroke-linejoin:round;stroke-opacity:0.75348834"
         d="M 8.7185878,4.0337352 -2.2072895,0.01601326 8.7185884,-4.0017078 c -1.7454984,2.3720609 -1.7354408,5.6174519 -6e-7,8.035443 z"
         transform="matrix(-1.1,0,0,-1.1,-1.1,0)" />
    </marker>
    <marker
       inkscape:stockid="Arrow2Lend"
       orient="auto"
       refY="0"
       refX="0"
       id="marker3681"
       style="overflow:visible"
       inkscape:isstock="true">
      <path
         inkscape:connector-curvature="0"
         id="path3679"
         style="fill:#000000;fill-opacity:0.75348834;fill-rule:evenodd;stroke:#000000;stroke-width:0.625;stroke-linejoin:round;stroke-opacity:0.75348834"
         d="M 8.7185878,4.0337352 -2.2072895,0.01601326 8.7185884,-4.0017078 c -1.7454984,2.3720609 -1.7354408,5.6174519 -6e-7,8.035443 z"
         transform="matrix(-1.1,0,0,-1.1,-1.1,0)" />
    </marker>
    <marker
       inkscape:stockid="Arrow2Lend"
       orient="auto"
       refY="0"
       refX="0"
       id="marker2663-62"
       style="overflow:visible"
       inkscape:isstock="true">
      <path
         inkscape:connector-curvature="0"
         id="path2661-3"
         style="fill:#000000;fill-opacity:0.75348834;fill-rule:evenodd;stroke:#000000;stroke-width:0.625;stroke-linejoin:round;stroke-opacity:0.75348834"
         d="M 8.7185878,4.0337352 -2.2072895,0.01601326 8.7185884,-4.0017078 c -1.7454984,2.3720609 -1.7354408,5.6174519 -6e-7,8.035443 z"
         transform="matrix(-1.1,0,0,-1.1,-1.1,0)" />
    </marker>
    <marker
       inkscape:stockid="Arrow2Lend"
       orient="auto"
       refY="0"
       refX="0"
       id="marker3681-0"
       style="overflow:visible"
       inkscape:isstock="true">
      <path
         inkscape:connector-curvature="0"
         id="path3679-5"
         style="fill:#000000;fill-opacity:0.75348834;fill-rule:evenodd;stroke:#000000;stroke-width:0.625;stroke-linejoin:round;stroke-opacity:0.75348834"
         d="M 8.7185878,4.0337352 -2.2072895,0.01601326 8.7185884,-4.0017078 c -1.7454984,2.3720609 -1.7354408,5.6174519 -6e-7,8.035443 z"
         transform="matrix(-1.1,0,0,-1.1,-1.1,0)" />
    </marker>
    <marker
       inkscape:stockid="Arrow1Lend"
       orient="auto"
       refY="0"
       refX="0"
       id="Arrow1Lend-8-0"
       style="overflow:visible"
       inkscape:isstock="true">
      <path
         inkscape:connector-curvature="0"
         id="path865-81-0"
         d="M 0,0 5,-5 -12.5,0 5,5 Z"
         style="fill:#000000;fill-opacity:1;fill-rule:evenodd;stroke:#000000;stroke-width:1.00000003pt;stroke-opacity:1"
         transform="matrix(-0.8,0,0,-0.8,-10,0)" />
    </marker>
    <marker
       inkscape:stockid="Arrow1Lend"
       orient="auto"
       refY="0"
       refX="0"
       id="Arrow1Lend-8-07"
       style="overflow:visible"
       inkscape:isstock="true">
      <path
         inkscape:connector-curvature="0"
         id="path865-81-4"
         d="M 0,0 5,-5 -12.5,0 5,5 Z"
         style="fill:#000000;fill-opacity:1;fill-rule:evenodd;stroke:#000000;stroke-width:1.00000003pt;stroke-opacity:1"
         transform="matrix(-0.8,0,0,-0.8,-10,0)" />
    </marker>
    <marker
       inkscape:stockid="Arrow1Lend"
       orient="auto"
       refY="0"
       refX="0"
       id="Arrow1Lend-8-1"
       style="overflow:visible"
       inkscape:isstock="true">
      <path
         inkscape:connector-curvature="0"
         id="path865-81-7"
         d="M 0,0 5,-5 -12.5,0 5,5 Z"
         style="fill:#000000;fill-opacity:1;fill-rule:evenodd;stroke:#000000;stroke-width:1.00000003pt;stroke-opacity:1"
         transform="matrix(-0.8,0,0,-0.8,-10,0)" />
    </marker>
  </defs>
  <sodipodi:namedview
     id="base"
     pagecolor="#ffffff"
     bordercolor="#666666"
     borderopacity="1.0"
     inkscape:pageopacity="0.0"
     inkscape:pageshadow="2"
     inkscape:zoom="1.0709325"
     inkscape:cx="561.25984"
     inkscape:cy="396.85039"
     inkscape:document-units="mm"
     inkscape:current-layer="layer1"
     showgrid="true"
     inkscape:window-width="1920"
     inkscape:window-height="1017"
     inkscape:window-x="-8"
     inkscape:window-y="-8"
     inkscape:window-maximized="1">
    <inkscape:grid
       type="xygrid"
       id="grid815" />
  </sodipodi:namedview>
  <metadata
     id="metadata5">
    <rdf:RDF>
      <cc:Work
         rdf:about="">
        <dc:format>image/svg+xml</dc:format>
        <dc:type
           rdf:resource="http://purl.org/dc/dcmitype/StillImage" />
        <dc:title></dc:title>
      </cc:Work>
    </rdf:RDF>
  </metadata>
  <g
     inkscape:label="Layer 1"
     inkscape:groupmode="layer"
     id="layer1"
     transform="translate(0,-87)">
    <rect
       style="opacity:1;fill:#fe0000;fill-opacity:0.25581396;stroke:#000000;stroke-width:0.56499994;stroke-miterlimit:4;stroke-dasharray:none;stroke-dashoffset:0;stroke-opacity:0.66046514"
       id="rect819"
       width="68.791664"
       height="13.229166"
       x="10.583333"
       y="167.35417"
       ry="6.614583" />
    <rect
       style="opacity:1;fill:#0000ff;fill-opacity:0.25490198;stroke:#000000;stroke-width:0.565;stroke-miterlimit:4;stroke-dasharray:none;stroke-dashoffset:0;stroke-opacity:0.66046514"
       id="rect819-9"
       width="68.791664"
       height="13.229167"
       x="13.22917"
       y="162.0625"
       ry="6.6145835" />
    <rect
       style="opacity:1;fill:#0000ff;fill-opacity:0.25581396;stroke:#000000;stroke-width:0.565;stroke-miterlimit:4;stroke-dasharray:none;stroke-dashoffset:0;stroke-opacity:0.66046514"
       id="rect819-3"
       width="68.791664"
       height="13.229167"
       x="7.937501"
       y="183.22917"
       ry="6.6145835" />
    <rect
       style="opacity:1;fill:#ff0000;fill-opacity:0.25490198;stroke:#000000;stroke-width:0.56500006;stroke-miterlimit:4;stroke-dasharray:none;stroke-dashoffset:0;stroke-opacity:0.66046514"
       id="rect819-9-4"
       width="68.791664"
       height="13.229167"
       x="10.583333"
       y="177.9375"
       ry="6.6145835" />
    <path
       style="fill:none;stroke:#00ff00;stroke-width:0.565;stroke-linecap:butt;stroke-linejoin:miter;stroke-opacity:1;stroke-miterlimit:4;stroke-dasharray:none;marker-mid:url(#Arrow2Lend);marker-end:url(#marker1146)"
       d="M 5.2916666,180.58334 H 291.04166"
       id="path860"
       inkscape:connector-curvature="0" />
    <rect
       style="opacity:1;fill:#0000ff;fill-opacity:0.25490198;stroke:#000000;stroke-width:1.06887293;stroke-miterlimit:4;stroke-dasharray:none;stroke-dashoffset:0;stroke-opacity:0.66046514"
       id="rect1214"
       width="105.83334"
       height="44.979168"
       x="187.85416"
       y="156.77084"
       ry="0" />
    <rect
       style="opacity:1;fill:#ff0000;fill-opacity:0.25490198;stroke:#000000;stroke-width:1.06887293;stroke-miterlimit:4;stroke-dasharray:none;stroke-dashoffset:0;stroke-opacity:0.75348834"
       id="rect1214-6"
       width="105.83334"
       height="44.979168"
       x="182.5625"
       y="162.0625"
       ry="0" />
    <text
       xml:space="preserve"
       style="font-style:normal;font-weight:normal;font-size:6.3499999px;line-height:1.25;font-family:sans-serif;letter-spacing:0px;word-spacing:0px;fill:#000000;fill-opacity:1;stroke:none;stroke-width:0.26458332"
       x="15.946813"
       y="216.56764"
       id="text1241"><tspan
         sodipodi:role="line"
         id="tspan1239"
         x="15.946813"
         y="216.56764"
         style="stroke-width:0.26458332">| J = 2, m<tspan
   style="font-size:64.99999762%;baseline-shift:sub"
   id="tspan1243">J </tspan>=0 &gt;</tspan></text>
    <text
       xml:space="preserve"
       style="font-style:normal;font-weight:normal;font-size:6.3499999px;line-height:1.25;font-family:sans-serif;letter-spacing:0px;word-spacing:0px;fill:#000000;fill-opacity:1;stroke:none;stroke-width:0.26458332"
       x="15.556129"
       y="100.4875"
       id="text1251"><tspan
         sodipodi:role="line"
         id="tspan1249"
         x="15.556129"
         y="100.4875"
         style="stroke-width:0.26458332">Electrostatic lens</tspan></text>
    <text
       xml:space="preserve"
       style="font-style:normal;font-weight:normal;font-size:6.3499999px;line-height:1.25;font-family:sans-serif;letter-spacing:0px;word-spacing:0px;fill:#000000;fill-opacity:1;stroke:none;stroke-width:0.26458332"
       x="178.98308"
       y="220.30515"
       id="text1542"><tspan
         sodipodi:role="line"
         id="tspan1540"
         x="178.98308"
         y="220.30515"
         style="stroke-width:0.26458332">| J = 1, m<tspan
   style="font-size:64.99999762%;baseline-shift:sub"
   id="tspan1544">J</tspan> =-1, m<tspan
   style="font-size:64.99999762%;baseline-shift:sub"
   id="tspan1546">1</tspan> = 1/2, m<tspan
   style="font-size:64.99999762%;baseline-shift:sub"
   id="tspan1040">2</tspan> = 1/2 &gt;</tspan></text>
    <text
       xml:space="preserve"
       style="font-style:normal;font-weight:normal;font-size:6.3499999px;line-height:1.25;font-family:sans-serif;letter-spacing:0px;word-spacing:0px;fill:#000000;fill-opacity:1;stroke:none;stroke-width:0.26458332"
       x="208.63873"
       y="101.84608"
       id="text1556"><tspan
         sodipodi:role="line"
         id="tspan1554"
         x="208.63873"
         y="101.84608"
         style="stroke-width:0.26458332">Interaction region</tspan></text>
    <path
       style="fill:none;stroke:#000000;stroke-width:0.26499999;stroke-linecap:butt;stroke-linejoin:miter;stroke-miterlimit:4;stroke-dasharray:none;stroke-opacity:1;marker-end:url(#Arrow1Lend)"
       d="m 269.87501,183.22917 5.29166,-5.29167"
       id="path1558"
       inkscape:connector-curvature="0" />
    <path
       style="fill:none;stroke:#000000;stroke-width:0.26499999;stroke-linecap:butt;stroke-linejoin:miter;stroke-miterlimit:4;stroke-dasharray:none;stroke-opacity:1;marker-end:url(#Arrow1Lend-6)"
       d="M 216.95834,183.22917 222.25,177.9375"
       id="path1558-4"
       inkscape:connector-curvature="0" />
    <path
       style="fill:none;stroke:#000000;stroke-width:0.26499999;stroke-linecap:butt;stroke-linejoin:miter;stroke-miterlimit:4;stroke-dasharray:none;stroke-opacity:1;marker-end:url(#Arrow1Lend-9)"
       d="m 230.18751,183.22917 5.29166,-5.29167"
       id="path1558-0"
       inkscape:connector-curvature="0" />
    <path
       style="fill:none;stroke:#000000;stroke-width:0.26499999;stroke-linecap:butt;stroke-linejoin:miter;stroke-miterlimit:4;stroke-dasharray:none;stroke-opacity:1;marker-end:url(#Arrow1Lend-5)"
       d="m 240.77084,183.22917 5.29166,-5.29167"
       id="path1558-3"
       inkscape:connector-curvature="0" />
    <path
       style="fill:none;stroke:#000000;stroke-width:0.26499999;stroke-linecap:butt;stroke-linejoin:miter;stroke-miterlimit:4;stroke-dasharray:none;stroke-opacity:1;marker-end:url(#Arrow1Lend-4)"
       d="m 256.64583,183.22917 5.29166,-5.29167"
       id="path1558-6"
       inkscape:connector-curvature="0" />
    <path
       style="fill:none;stroke:#000000;stroke-width:0.26499999;stroke-linecap:butt;stroke-linejoin:miter;stroke-miterlimit:4;stroke-dasharray:none;stroke-opacity:1;marker-end:url(#Arrow1Lend-62)"
       d="m 203.72917,183.22917 5.29166,-5.29167"
       id="path1558-1"
       inkscape:connector-curvature="0" />
    <path
       style="fill:none;stroke:#000000;stroke-width:0.26499999;stroke-linecap:butt;stroke-linejoin:miter;stroke-miterlimit:4;stroke-dasharray:none;stroke-opacity:1;marker-end:url(#Arrow1Lend-8)"
       d="m 190.5,183.22918 5.29166,-5.29167"
       id="path1558-37"
       inkscape:connector-curvature="0" />
    <ellipse
       style="opacity:1;fill:none;fill-opacity:0.25490196;stroke:#000000;stroke-width:0.26499999;stroke-miterlimit:4;stroke-dasharray:none;stroke-dashoffset:0;stroke-opacity:0.75348834;marker-mid:url(#marker2663);marker-end:url(#marker2663)"
       id="path2659"
       cx="45.415928"
       cy="180.0016"
       rx="2.6458333"
       ry="9.260417" />
    <ellipse
       style="opacity:1;fill:none;fill-opacity:0.25490196;stroke:#000000;stroke-width:0.26499999;stroke-miterlimit:4;stroke-dasharray:none;stroke-dashoffset:0;stroke-opacity:0.75348834;marker-mid:url(#marker2663-6);marker-end:url(#marker2663-6)"
       id="path2659-3"
       cx="58.23724"
       cy="180.4239"
       rx="2.6458333"
       ry="9.260417" />
    <ellipse
       style="opacity:1;fill:none;fill-opacity:0.25490196;stroke:#000000;stroke-width:0.26499999;stroke-miterlimit:4;stroke-dasharray:none;stroke-dashoffset:0;stroke-opacity:0.75348834;marker-mid:url(#marker2663-62);marker-end:url(#marker2663-62)"
       id="path2659-0"
       cx="32.885033"
       cy="180.10504"
       rx="2.6458333"
       ry="9.260417" />
    <rect
       style="opacity:1;fill:#ff0000;fill-opacity:0.25490196;stroke:#000000;stroke-width:0.63500512;stroke-miterlimit:4;stroke-dasharray:none;stroke-dashoffset:0;stroke-opacity:0.75348834"
       id="rect1214-6-6"
       width="52.916668"
       height="31.750002"
       x="100.54166"
       y="164.70834"
       ry="0" />
    <rect
       style="opacity:1;fill:#0000ff;fill-opacity:0.25490196;stroke:#000000;stroke-width:0.63500512;stroke-miterlimit:4;stroke-dasharray:none;stroke-dashoffset:0;stroke-opacity:0.75348834"
       id="rect1214-6-6-1"
       width="52.916668"
       height="31.750002"
       x="105.83334"
       y="159.41667"
       ry="0" />
    <path
       style="fill:none;stroke:#000000;stroke-width:0.26499999;stroke-linecap:butt;stroke-linejoin:miter;stroke-miterlimit:4;stroke-dasharray:none;stroke-opacity:1;marker-end:url(#Arrow1Lend-8-0)"
       d="m 111.12501,183.22917 5.29166,-5.29167"
       id="path1558-37-1"
       inkscape:connector-curvature="0" />
    <path
       style="fill:none;stroke:#000000;stroke-width:0.26499999;stroke-linecap:butt;stroke-linejoin:miter;stroke-miterlimit:4;stroke-dasharray:none;stroke-opacity:1;marker-end:url(#Arrow1Lend-8-07)"
       d="m 127,183.22918 5.29166,-5.29167"
       id="path1558-37-6"
       inkscape:connector-curvature="0" />
    <path
       style="fill:none;stroke:#000000;stroke-width:0.26499999;stroke-linecap:butt;stroke-linejoin:miter;stroke-miterlimit:4;stroke-dasharray:none;stroke-opacity:1;marker-end:url(#Arrow1Lend-8-1)"
       d="m 142.875,183.22918 5.29166,-5.29167"
       id="path1558-37-4"
       inkscape:connector-curvature="0" />
    <path
       id="path5646"
       style="fill:none;stroke:#000000;stroke-width:0.26458332px;stroke-linecap:butt;stroke-linejoin:miter;stroke-opacity:1"
       d="m 158.39951,148.74572 -13.22917,-29.10417 m -42.33333,29.10417 13.22917,-29.10417 M 158.75,148.83334 a 27.78125,1.3229166 0 0 1 -27.78125,1.32292 27.78125,1.3229166 0 0 1 -27.78125,-1.32292 27.78125,1.3229166 0 0 1 27.78125,-1.32292 27.78125,1.3229166 0 0 1 27.78125,1.32292 z"
       inkscape:connector-curvature="0" />
    <path
       id="path5646-0"
       style="fill:none;stroke:#000000;stroke-width:0.26458332px;stroke-linecap:butt;stroke-linejoin:miter;stroke-opacity:1"
       d="m 158.75,204.39584 -13.22917,29.10417 m -42.33333,-29.10417 13.22917,29.10417 m 42.68381,-28.94473 a 27.78125,1.3229166 0 0 0 -27.78125,-1.32292 27.78125,1.3229166 0 0 0 -27.78125,1.32292 27.78125,1.3229166 0 0 0 27.78125,1.32292 27.78125,1.3229166 0 0 0 27.78125,-1.32292 z"
       inkscape:connector-curvature="0" />
    <text
       xml:space="preserve"
       style="font-style:normal;font-weight:normal;font-size:6.3499999px;line-height:1.25;font-family:sans-serif;letter-spacing:0px;word-spacing:0px;fill:#000000;fill-opacity:1;stroke:none;stroke-width:0.26458332"
       x="103.1875"
       y="101.20834"
       id="text5676"><tspan
         sodipodi:role="line"
         id="tspan5674"
         x="103.1875"
         y="101.20834"
         style="stroke-width:0.26458332">State preparation</tspan></text>
    <path
       id="path5701-5-3"
       style="fill:none;stroke:#000000;stroke-width:0.2193809px;stroke-linecap:butt;stroke-linejoin:miter;stroke-opacity:1"
       d="m 132.29167,163.38542 c 0,0 5.29166,-3.63802 5.29166,-7.27604 0,-3.63802 -5.29166,-7.27604 -5.29166,-7.27604 v 0 0 m 0,29.10416 c 0,0 -5.29166,-3.63801 -5.29166,-7.27603 0,-3.63803 5.29166,-7.27605 5.29166,-7.27605 v 0 0 m 0,29.10416 c 0,0 5.29166,-3.63802 5.29166,-7.27603 0,-3.63803 -5.29166,-7.27605 -5.29166,-7.27605 v 0 0 m 0,29.10417 c 0,0 -5.29166,-3.63802 -5.29166,-7.27604 0,-3.63802 5.29166,-7.27605 5.29166,-7.27605 v 0 0"
       inkscape:connector-curvature="0" />
    <path
       id="path5701-5-3-7"
       style="fill:none;stroke:#000000;stroke-width:0.2193809px;stroke-linecap:butt;stroke-linejoin:miter;stroke-opacity:1"
       d="m 119.0625,163.38542 c 0,0 5.29166,-3.63802 5.29166,-7.27604 0,-3.63802 -5.29166,-7.27604 -5.29166,-7.27604 v 0 0 m 0,29.10416 c 0,0 -5.29166,-3.63801 -5.29166,-7.27603 0,-3.63803 5.29166,-7.27605 5.29166,-7.27605 v 0 0 m 0,29.10416 c 0,0 5.29166,-3.63802 5.29166,-7.27603 0,-3.63803 -5.29166,-7.27605 -5.29166,-7.27605 v 0 0 m 0,29.10417 c 0,0 -5.29166,-3.63802 -5.29166,-7.27604 0,-3.63802 5.29166,-7.27605 5.29166,-7.27605 v 0 0"
       inkscape:connector-curvature="0" />
    <path
       id="path5701-5-3-3"
       style="fill:none;stroke:#000000;stroke-width:0.2193809px;stroke-linecap:butt;stroke-linejoin:miter;stroke-opacity:1"
       d="m 145.52083,163.38542 c 0,0 5.29166,-3.63802 5.29166,-7.27604 0,-3.63802 -5.29166,-7.27604 -5.29166,-7.27604 v 0 0 m 0,29.10416 c 0,0 -5.29166,-3.63801 -5.29166,-7.27603 0,-3.63803 5.29166,-7.27605 5.29166,-7.27605 v 0 0 m 0,29.10416 c 0,0 5.29166,-3.63802 5.29166,-7.27603 0,-3.63803 -5.29166,-7.27605 -5.29166,-7.27605 v 0 0 m 0,29.10417 c 0,0 -5.29166,-3.63802 -5.29166,-7.27604 0,-3.63802 5.29166,-7.27605 5.29166,-7.27605 v 0 0"
       inkscape:connector-curvature="0" />
    <text
       xml:space="preserve"
       style="font-style:normal;font-weight:normal;font-size:6.3499999px;line-height:1.25;font-family:sans-serif;letter-spacing:0px;word-spacing:0px;fill:#000000;fill-opacity:1;stroke:none;stroke-width:0.26458332"
       x="112.81421"
       y="144.60173"
       id="text5770"><tspan
         sodipodi:role="line"
         id="tspan5768"
         x="112.81421"
         y="144.60173"
         style="stroke-width:0.26458332">Microwaves</tspan></text>
    <text
       xml:space="preserve"
       style="font-style:normal;font-weight:normal;font-size:6.3499999px;line-height:1.25;font-family:sans-serif;letter-spacing:0px;word-spacing:0px;fill:#000000;fill-opacity:1;stroke:none;stroke-width:0.26458332"
       x="225.96445"
       y="244.3647"
       id="text1030"><tspan
         sodipodi:role="line"
         id="tspan1028"
         x="225.96445"
         y="244.3647"
         style="stroke-width:0.26458332">E field only</tspan></text>
    <text
       xml:space="preserve"
       style="font-style:normal;font-weight:normal;font-size:6.3499999px;line-height:1.25;font-family:sans-serif;letter-spacing:0px;word-spacing:0px;fill:#000000;fill-opacity:1;stroke:none;stroke-width:0.26458332"
       x="5.984066"
       y="242.57207"
       id="text1034"><tspan
         sodipodi:role="line"
         id="tspan1032"
         x="5.984066"
         y="242.57207"
         style="stroke-width:0.26458332">E field + Earth magnetic field</tspan></text>
    <text
       xml:space="preserve"
       style="font-style:normal;font-weight:normal;font-size:6.3499999px;line-height:1.25;font-family:sans-serif;letter-spacing:0px;word-spacing:0px;fill:#000000;fill-opacity:1;stroke:none;stroke-width:0.26458332"
       x="112.43209"
       y="242.07794"
       id="text1038"><tspan
         sodipodi:role="line"
         id="tspan1036"
         x="112.43209"
         y="242.07794"
         style="stroke-width:0.26458332">E and B field</tspan></text>
  </g>
</svg>
